<?xml version="1.0" standalone="no"?>
<!DOCTYPE svg PUBLIC "-//W3C//DTD SVG 20010904//EN"
 "http://www.w3.org/TR/2001/REC-SVG-20010904/DTD/svg10.dtd">
<svg version="1.0" xmlns="http://www.w3.org/2000/svg"
 width="225.000000pt" height="225.000000pt" viewBox="0 0 225.000000 225.000000"
 preserveAspectRatio="xMidYMid meet">

<g transform="translate(0.000000,225.000000) scale(0.100000,-0.100000)"
fill="#000000" stroke="none">
<path d="M1059 2143 c-43 -10 -22 -78 21 -71 33 4 40 38 8 38 -18 0 -20 -2 -8
-10 18 -11 7 -25 -15 -17 -8 4 -15 16 -15 28 0 17 5 20 25 17 14 -3 25 -2 25
2 0 11 -22 17 -41 13z"/>
<path d="M1143 2110 c0 -25 2 -35 4 -22 2 12 2 32 0 45 -2 12 -4 2 -4 -23z"/>
<path d="M1187 2105 l-17 -35 26 6 c17 4 29 2 36 -7 6 -9 7 -2 2 21 -12 62
-23 66 -47 15z m29 -12 c-10 -10 -19 5 -10 18 6 11 8 11 12 0 2 -7 1 -15 -2
-18z"/>
<path d="M922 2118 c-25 -25 -6 -68 29 -68 20 0 35 18 24 28 -3 3 -10 0 -16
-8 -8 -13 -11 -12 -24 3 -19 25 -8 49 17 41 14 -4 18 -2 14 5 -9 14 -29 14
-44 -1z"/>
<path d="M1277 2124 c-4 -4 -7 -20 -7 -35 0 -19 6 -30 20 -34 28 -9 52 13 48
44 -2 19 -9 27 -28 29 -14 2 -29 0 -33 -4z m50 -20 c8 -21 -23 -52 -38 -37
-14 14 -2 53 17 53 8 0 17 -7 21 -16z"/>
<path d="M826 2095 c-19 -20 -20 -26 -3 -49 26 -36 84 4 61 42 -15 23 -38 26
-58 7z m43 -13 c12 -23 -2 -47 -23 -39 -24 10 -20 57 5 57 5 0 13 -8 18 -18z"/>
<path d="M1414 2057 l-1 -42 13 33 c8 17 20 32 27 32 8 0 7 4 -3 10 -27 18
-35 10 -36 -33z"/>
<path d="M766 2066 c8 -20 -14 -30 -33 -14 -15 11 -16 11 -9 -7 5 -11 11 -28
13 -37 3 -10 9 -18 14 -18 5 0 6 7 2 16 -9 24 18 36 34 16 15 -21 16 -14 2 27
-6 17 -15 31 -20 31 -4 0 -6 -6 -3 -14z"/>
<path d="M1477 2045 c-20 -42 -20 -45 -7 -45 6 0 10 7 10 16 0 9 7 14 18 12
11 -2 16 -12 15 -28 -2 -20 2 -16 17 15 18 39 18 66 -1 33 -13 -23 -38 -12
-32 13 8 30 -2 22 -20 -16z"/>
<path d="M1616 2036 c4 -10 0 -13 -14 -9 -22 5 -54 -23 -50 -45 5 -24 35 -39
56 -26 18 12 27 80 11 90 -5 3 -6 -2 -3 -10z m-6 -60 c-7 -9 -17 -16 -22 -16
-16 0 -21 30 -7 46 11 13 14 13 27 0 13 -12 13 -18 2 -30z"/>
<path d="M650 2025 c0 -13 32 -66 36 -62 6 6 -23 67 -31 67 -3 0 -5 -2 -5 -5z"/>
<path d="M587 1993 c-6 -6 -1 -40 10 -73 4 -11 7 -9 14 8 7 18 14 22 30 17 14
-5 19 -3 15 3 -11 18 -63 52 -69 45z m33 -33 c0 -5 -4 -10 -10 -10 -5 0 -10 5
-10 10 0 6 5 10 10 10 6 0 10 -4 10 -10z"/>
<path d="M1653 1963 c-28 -39 -30 -52 -3 -28 20 18 20 17 20 -16 1 -33 1 -33
16 -14 9 11 20 29 26 40 11 20 10 20 -10 2 -20 -19 -21 -18 -24 15 l-3 33 -22
-32z"/>
<path d="M985 1974 c-84 -19 -145 -37 -145 -43 0 -4 57 -34 128 -68 116 -57
134 -62 209 -67 236 -15 454 -163 557 -379 55 -115 70 -177 69 -297 0 -103
-18 -191 -58 -277 -18 -41 -20 -52 -9 -55 19 -4 -65 -127 -89 -128 -10 0 -47
-24 -84 -54 -139 -115 -276 -161 -463 -154 -177 7 -301 58 -435 181 -35 31
-72 57 -84 57 -14 0 -33 19 -61 59 -22 33 -40 62 -40 65 0 4 9 6 21 6 16 0 19
4 14 18 -44 103 -58 172 -59 277 0 161 41 293 130 409 26 35 37 59 39 91 4 61
55 150 137 239 38 42 68 76 65 76 -2 0 -26 -10 -53 -21 -194 -85 -366 -266
-447 -471 -137 -341 -25 -756 264 -982 81 -64 222 -136 314 -161 95 -26 285
-31 386 -10 338 68 606 336 674 674 21 102 16 292 -10 386 -44 160 -158 337
-284 441 -74 62 -234 145 -326 170 -58 16 -314 29 -360 18z"/>
<path d="M507 1939 c-13 -7 -16 -17 -11 -32 10 -33 34 -47 56 -33 23 14 23 38
0 59 -22 20 -21 20 -45 6z m43 -24 c12 -15 6 -35 -11 -35 -5 0 -9 7 -9 16 0 8
-4 12 -10 9 -5 -3 -10 1 -10 9 0 20 24 21 40 1z"/>
<path d="M1718 1895 c-13 -29 3 -55 33 -55 26 0 32 15 12 31 -15 12 -16 12
-10 -3 8 -21 -6 -24 -22 -5 -8 10 -7 19 3 33 14 18 15 18 35 0 22 -20 30 -9 9
12 -20 20 -48 14 -60 -13z"/>
<path d="M415 1856 c-26 -19 -13 -66 19 -66 29 0 51 24 42 46 -7 17 -27 15
-34 -4 -2 -7 2 -10 12 -6 12 5 15 2 10 -10 -8 -20 -28 -21 -45 0 -11 14 -10
18 6 30 10 8 16 16 14 19 -3 3 -14 -1 -24 -9z"/>
<path d="M1824 1809 c-21 -41 -7 -52 36 -29 19 11 29 19 22 20 -7 0 -22 -5
-33 -10 -23 -13 -24 -7 -3 25 10 15 12 25 5 25 -6 0 -18 -14 -27 -31z"/>
<path d="M365 1780 c18 -20 17 -20 -16 -20 l-34 -1 30 -24 c17 -14 35 -25 40
-25 6 1 2 7 -7 14 -22 16 -23 27 -3 20 8 -4 22 -3 31 0 13 5 10 11 -14 31 -36
30 -52 33 -27 5z"/>
<path d="M1936 1755 c4 -8 8 -15 10 -15 2 0 4 7 4 15 0 8 -4 15 -10 15 -5 0
-7 -7 -4 -15z"/>
<path d="M1873 1743 c-29 -6 -30 -19 -2 -26 15 -4 20 -11 16 -21 -11 -28 12
-17 28 14 8 16 15 31 15 35 0 5 -22 5 -57 -2z m37 -13 c0 -5 -5 -10 -11 -10
-5 0 -7 5 -4 10 3 6 8 10 11 10 2 0 4 -4 4 -10z"/>
<path d="M292 1725 c4 -4 1 -14 -7 -22 -30 -29 -6 -67 37 -61 16 2 24 11 26
30 3 22 -3 30 -30 44 -18 9 -30 13 -26 9z m43 -50 c0 -30 -39 -27 -43 3 -3 20
0 23 20 20 15 -2 23 -10 23 -23z"/>
<path d="M1032 1694 c-38 -30 -72 -92 -72 -131 1 -55 40 -113 159 -238 115
-121 161 -187 161 -232 0 -36 -43 -85 -120 -138 -41 -28 -104 -72 -140 -98
-63 -46 -64 -47 -32 -47 39 0 102 -25 118 -46 11 -13 16 -13 45 5 32 19 50 21
256 21 l222 0 36 73 c193 391 -100 856 -540 857 -49 0 -66 -5 -93 -26z"/>
<path d="M1930 1670 c-14 -11 -20 -20 -14 -20 5 0 16 6 23 13 14 12 14 8 -5
-38 -9 -21 16 -19 46 5 27 21 21 26 -11 9 -20 -10 -20 -9 -4 20 19 37 4 42
-35 11z"/>
<path d="M236 1636 c3 -7 16 -18 30 -24 13 -7 24 -16 24 -21 0 -19 -21 -22
-45 -7 -14 9 -25 12 -25 6 0 -15 46 -34 64 -27 25 10 19 46 -9 59 -14 6 -25
15 -25 20 0 4 -4 8 -10 8 -5 0 -7 -6 -4 -14z"/>
<path d="M2026 1577 c3 -8 -9 -20 -28 -30 -25 -14 -27 -16 -8 -11 14 3 35 6
47 6 21 0 21 1 6 24 -17 26 -25 31 -17 11z"/>
<path d="M182 1514 c-11 -23 -10 -26 23 -40 44 -18 56 -18 31 1 -21 16 -22 16
14 33 22 11 22 12 3 8 -12 -2 -24 2 -27 10 -9 22 -32 16 -44 -12z m32 -9 c-4
-8 -10 -15 -15 -15 -5 0 -9 7 -9 15 0 8 7 15 15 15 9 0 12 -6 9 -15z"/>
<path d="M633 1452 c-45 -65 -72 -135 -89 -220 -8 -41 -14 -80 -14 -88 0 -12
42 -14 253 -14 264 0 296 5 282 42 -5 12 -283 240 -390 319 -6 5 -24 -11 -42
-39z"/>
<path d="M2000 1481 c0 -5 7 -12 16 -15 10 -4 13 -13 9 -27 -7 -21 -7 -21 24
2 43 32 40 49 -9 49 -22 0 -40 -4 -40 -9z m60 -11 c0 -5 -5 -10 -11 -10 -5 0
-7 5 -4 10 3 6 8 10 11 10 2 0 4 -4 4 -10z"/>
<path d="M153 1433 c-7 -19 -8 -33 -2 -33 5 0 9 4 9 9 0 6 17 8 38 6 l37 -5
-32 11 c-18 7 -34 19 -35 28 -3 10 -8 4 -15 -16z"/>
<path d="M2061 1409 c-18 -6 -31 -13 -28 -16 8 -8 67 7 67 18 0 5 -1 9 -2 8
-2 0 -18 -5 -37 -10z"/>
<path d="M530 1093 c1 -41 31 -157 55 -212 l27 -59 134 -7 c75 -4 137 -5 140
-2 4 4 -311 271 -343 291 -9 5 -13 1 -13 -11z"/>
<path d="M1050 1070 c-13 -9 -13 -10 0 -10 8 0 22 5 30 10 13 9 13 10 0 10 -8
0 -22 -5 -30 -10z"/>
<path d="M142 1063 c-29 -6 -39 -30 -21 -49 11 -10 22 -11 44 -5 l30 9 -38 1
c-45 1 -47 24 -4 29 15 2 27 8 27 13 0 5 -3 8 -7 8 -5 -1 -18 -4 -31 -6z"/>
<path d="M940 1048 c-29 -8 -32 -11 -17 -20 21 -11 91 8 82 23 -7 11 -19 10
-65 -3z"/>
<path d="M2063 1044 c-3 -8 0 -21 6 -27 9 -9 16 -7 30 12 11 14 21 20 25 13 3
-6 2 -13 -4 -17 -5 -3 -10 -11 -10 -18 0 -7 7 -5 16 5 19 19 12 48 -11 48 -9
0 -18 -7 -21 -15 -4 -8 -11 -15 -16 -15 -6 0 -8 7 -4 15 3 8 3 15 0 15 -2 0
-7 -7 -11 -16z"/>
<path d="M797 1011 c-57 -16 -58 -17 -38 -35 20 -19 31 -17 98 11 29 11 33 16
23 28 -15 18 -10 18 -83 -4z"/>
<path d="M153 982 c-18 -2 -33 -7 -33 -12 0 -4 10 -6 23 -2 22 5 22 5 3 -16
-25 -28 -15 -38 26 -25 29 10 30 11 9 12 -23 1 -24 2 -6 21 22 24 20 26 -22
22z"/>
<path d="M2080 980 l25 -7 -28 -12 c-16 -6 -26 -15 -23 -20 8 -12 66 -20 66
-9 0 4 -10 8 -22 8 -21 1 -21 2 6 16 22 13 26 18 15 25 -8 5 -25 8 -39 8 l-25
-1 25 -8z"/>
<path d="M168 903 c-16 -2 -28 -9 -28 -14 0 -11 50 -1 65 12 5 6 5 8 0 8 -6
-1 -22 -4 -37 -6z"/>
<path d="M2039 894 c-17 -21 0 -49 31 -49 31 0 48 28 31 49 -8 9 -21 16 -31
16 -10 0 -23 -7 -31 -16z m51 -9 c22 -26 -12 -49 -37 -24 -14 14 -6 39 12 39
7 0 18 -7 25 -15z"/>
<path d="M172 857 c-12 -13 -19 -27 -15 -30 10 -11 73 -8 73 3 0 6 -12 10 -27
10 -25 0 -26 0 -8 20 25 28 3 25 -23 -3z"/>
<path d="M2020 830 c0 -4 14 -13 31 -19 38 -13 39 -13 39 -3 0 5 -16 13 -35
19 -19 6 -35 7 -35 3z"/>
<path d="M198 797 c-31 -12 -34 -24 -14 -52 13 -18 14 -18 9 8 -3 16 -1 27 6
27 6 0 11 -7 11 -15 0 -8 4 -15 9 -15 5 0 7 10 4 23 -4 21 -4 22 11 3 16 -20
21 -11 10 18 -7 18 -8 18 -46 3z"/>
<path d="M2002 786 c-16 -35 -15 -41 2 -27 11 10 20 10 36 1 12 -6 24 -9 27
-6 3 3 -6 11 -20 17 -14 6 -27 19 -29 27 -2 11 -7 7 -16 -12z"/>
<path d="M228 724 c-29 -15 -38 -30 -13 -21 17 7 30 -9 15 -18 -5 -3 -10 -14
-10 -23 1 -16 2 -16 14 1 7 9 21 17 30 17 17 0 20 17 10 44 -7 19 -11 19 -46
0z m40 -22 c6 -18 -15 -14 -22 4 -4 10 -1 14 6 12 6 -2 14 -10 16 -16z"/>
<path d="M1970 712 c0 -5 14 -21 31 -38 29 -27 31 -27 24 -6 -4 15 -2 24 9 28
29 11 16 24 -24 24 -22 0 -40 -4 -40 -8z m40 -12 c0 -5 -2 -10 -4 -10 -3 0 -8
5 -11 10 -3 6 -1 10 4 10 6 0 11 -4 11 -10z"/>
<path d="M730 680 c1 -12 91 -71 144 -96 89 -40 152 -54 256 -54 130 0 220 26
325 93 l50 32 -70 6 c-39 4 -109 7 -157 8 -80 1 -89 -1 -112 -24 -40 -40 -109
-27 -127 23 -4 10 -309 22 -309 12z"/>
<path d="M276 651 c-3 -5 -3 -17 1 -26 4 -13 2 -16 -8 -13 -8 3 -12 14 -11 24
3 14 1 16 -8 8 -9 -9 -9 -17 0 -34 15 -27 34 -21 38 13 2 15 8 25 13 21 5 -3
7 -10 4 -15 -4 -5 -1 -9 5 -9 6 0 10 8 8 17 -4 20 -33 29 -42 14z"/>
<path d="M1937 653 c-14 -13 -7 -43 12 -53 35 -18 70 10 50 41 -7 11 -9 9 -9
-8 0 -16 -6 -23 -19 -23 -28 0 -37 21 -16 37 15 10 16 13 4 13 -9 0 -19 -3
-22 -7z"/>
<path d="M304 586 c-16 -14 -24 -25 -19 -25 14 0 59 38 53 45 -3 3 -19 -6 -34
-20z"/>
<path d="M1915 584 c31 -24 55 -36 55 -27 0 10 -53 43 -67 43 -4 0 1 -8 12
-16z"/>
<path d="M350 567 c0 -9 -9 -21 -20 -27 -11 -6 -20 -15 -20 -21 0 -6 13 -1 29
10 15 11 31 18 35 14 3 -3 6 -2 6 4 0 6 -7 16 -15 23 -12 10 -15 10 -15 -3z"/>
<path d="M1900 555 c11 -13 8 -15 -14 -15 -14 0 -26 -4 -26 -9 0 -12 50 -44
57 -37 3 3 -2 8 -11 12 -28 11 -18 21 17 16 l32 -5 -24 27 c-26 27 -53 37 -31
11z"/>
<path d="M379 498 c-7 -18 -15 -37 -17 -43 -3 -5 4 -3 14 6 10 10 28 19 39 22
19 4 19 5 -2 6 -16 1 -20 6 -16 21 8 32 -4 23 -18 -12z"/>
<path d="M1850 485 c16 -17 20 -29 14 -35 -7 -7 -16 -4 -29 10 -10 11 -23 20
-28 20 -6 0 0 -11 13 -25 27 -29 42 -31 60 -10 11 13 9 20 -10 40 -13 14 -28
25 -33 25 -6 0 0 -11 13 -25z"/>
<path d="M1777 454 c-3 -4 -2 -15 3 -25 6 -10 9 -24 8 -31 -2 -6 5 -14 15 -16
18 -4 18 -3 1 25 l-18 28 22 -19 c33 -29 36 -14 4 17 -16 15 -31 24 -35 21z"/>
<path d="M434 426 c-11 -28 1 -51 25 -51 28 0 47 25 38 49 -8 20 -56 21 -63 2z
m52 -7 c10 -17 -23 -46 -37 -32 -7 7 -9 19 -6 27 7 18 33 21 43 5z"/>
<path d="M1740 412 c0 -5 12 -19 27 -33 15 -13 22 -16 14 -7 -7 9 -10 21 -7
27 3 5 -1 12 -10 15 -21 8 -24 8 -24 -2z"/>
<path d="M1716 392 c-9 -14 0 -62 14 -75 10 -10 11 -6 6 18 -6 28 -5 29 9 11
9 -12 15 -15 15 -7 0 18 -37 63 -44 53z"/>
<path d="M507 372 c-10 -10 -17 -25 -17 -33 0 -12 2 -12 9 0 5 8 16 11 26 7
15 -5 16 -4 6 8 -8 9 -8 16 -2 20 5 4 12 2 16 -4 3 -5 12 -10 18 -10 12 1 -21
30 -33 30 -4 0 -14 -8 -23 -18z"/>
<path d="M1675 361 c-7 -12 24 -60 39 -61 5 0 3 7 -4 15 -6 8 -9 18 -6 23 3 6
-1 15 -8 21 -10 8 -16 9 -21 2z"/>
<path d="M605 330 c4 -6 -1 -22 -9 -35 -9 -14 -12 -25 -6 -25 6 0 13 7 17 16
3 9 15 19 25 23 18 6 18 8 -7 19 -16 8 -24 8 -20 2z"/>
<path d="M1614 316 c-10 -27 1 -51 25 -54 31 -5 45 11 37 42 -5 19 -13 26 -32
26 -13 0 -27 -6 -30 -14z m50 -13 c4 -9 2 -21 -3 -26 -15 -15 -41 0 -41 23 0
25 35 28 44 3z"/>
<path d="M642 275 c-15 -32 -15 -57 -1 -32 13 22 29 13 30 -16 1 -20 2 -20 6
-2 3 11 13 25 22 32 15 12 14 14 -3 28 -28 21 -41 19 -54 -10z m46 -4 c3 -8
-1 -12 -9 -9 -7 2 -15 10 -17 17 -3 8 1 12 9 9 7 -2 15 -10 17 -17z"/>
<path d="M1544 276 c-16 -42 28 -75 56 -41 7 9 8 15 2 15 -6 0 -12 -5 -14 -12
-6 -18 -38 -1 -38 21 0 12 8 21 23 24 l22 4 -23 2 c-12 0 -25 -5 -28 -13z"/>
<path d="M722 237 c-26 -28 -28 -39 -6 -30 11 4 22 -1 30 -12 13 -17 14 -15
14 23 0 48 -8 52 -38 19z m28 -13 c0 -8 -5 -12 -10 -9 -6 4 -8 11 -5 16 9 14
15 11 15 -7z"/>
<path d="M1448 243 c-10 -2 -18 -8 -18 -13 0 -16 23 -60 31 -60 22 0 39 15 39
34 0 21 -18 47 -29 45 -4 -1 -14 -3 -23 -6z m39 -29 c8 -22 -15 -43 -27 -24
-5 8 -10 21 -10 28 0 17 30 15 37 -4z"/>
<path d="M792 208 c-6 -17 -10 -34 -7 -36 2 -3 9 6 14 19 9 24 10 23 16 -8 10
-42 19 -42 32 2 6 20 7 35 2 35 -5 0 -9 -7 -9 -16 0 -8 -4 -12 -10 -9 -5 3
-10 15 -10 26 0 29 -14 23 -28 -13z"/>
<path d="M1405 203 l7 -28 -26 24 -26 24 1 -24 c0 -13 5 -33 10 -44 8 -17 9
-16 5 8 l-3 28 23 -22 c30 -28 36 -22 23 24 -11 42 -25 51 -14 10z"/>
<path d="M870 196 c0 -7 10 -21 23 -29 16 -12 18 -16 7 -16 -9 -1 -22 5 -29
12 -11 10 -13 9 -9 -3 6 -20 58 -26 58 -7 0 8 -10 22 -22 31 l-23 17 23 -5
c12 -2 22 0 22 5 0 5 -11 9 -25 9 -15 0 -25 -6 -25 -14z"/>
<path d="M941 158 c1 -24 3 -35 6 -25 2 9 13 17 24 17 11 0 22 7 26 16 7 18
-12 34 -39 34 -15 0 -18 -8 -17 -42z m39 11 c0 -5 -4 -9 -10 -9 -5 0 -10 7
-10 16 0 8 5 12 10 9 6 -3 10 -10 10 -16z"/>
<path d="M1292 160 c-11 -44 -8 -48 15 -25 12 12 18 13 29 4 18 -15 18 -5 -1
31 -21 40 -31 38 -43 -10z"/>
<path d="M1020 170 c-14 -26 3 -60 31 -60 24 0 41 38 27 63 -12 23 -45 22 -58
-3z m45 -20 c0 -13 -6 -25 -12 -27 -16 -6 -27 21 -19 43 9 23 31 11 31 -16z"/>
<path d="M1180 179 c0 -5 5 -7 10 -4 6 3 10 -4 10 -17 0 -13 5 -30 10 -38 7
-11 10 -6 10 22 0 20 6 39 13 41 6 3 -3 6 -20 6 -18 1 -33 -4 -33 -10z"/>
<path d="M1100 145 c0 -19 5 -35 10 -35 6 0 10 7 10 15 0 8 4 15 9 15 5 0 11
-7 15 -15 3 -8 11 -15 17 -15 8 0 8 4 1 13 -6 7 -9 23 -5 35 5 19 1 22 -26 22
-29 0 -31 -2 -31 -35z m50 15 c0 -5 -7 -10 -15 -10 -8 0 -15 5 -15 10 0 6 7
10 15 10 8 0 15 -4 15 -10z"/>
</g>
</svg>
